<svg version="1.1" id="Capa_1" xmlns="http://www.w3.org/2000/svg" xmlns:xlink="http://www.w3.org/1999/xlink" x="0px" y="0px"
	 viewBox="0 0 461.046 461.046" style="enable-background:new 0 0 461.046 461.046;" xml:space="preserve">
<path d="M460.783,125.589c0.505-1.324,0.272-2.817-0.613-3.924c-0.885-1.107-2.287-1.66-3.693-1.461
	c-8.802,1.269-18.55-1.899-29.839-5.563c-22.632-7.345-50.723-16.44-90.371,2.558c-8.955-4.386-18.912-7.067-29.472-7.57
	l-1.113-0.053l-14.401-16.758c-10.405-12.119-27.033-17.078-42.358-12.636c-7.973,2.301-14.934,6.888-20.204,13.289l-16.611-3.756
	c-23.776-5.374-48.045,4.14-61.833,24.241l-9.787,14.271c-9.281,0.716-18.396,3.976-26.224,9.774l-0.396,0.293
	c-16.493,12.217-23.487,32.48-19.388,51.372c-13.574,2.237-54.299,11.458-93.112,45.357c-1.067,0.933-1.562,2.36-1.299,3.753
	c0.262,1.393,1.242,2.543,2.576,3.023c8.362,3.01,15.485,10.377,23.733,18.908c16.644,17.214,38.935,40.277,87.344,40.274
	c3.459,0,7.064-0.125,10.799-0.372c4.15,6.594,9.523,12.488,15.99,17.392l1.505,1.142c13.869,10.516,30.645,16.123,47.894,16.123
	c2.406,0,4.824-0.109,7.243-0.33c14.359-1.308,27.911-6.467,39.387-14.802c4.805,12.009,20.321,40.471,64.646,61.934
	c0.552,0.268,1.148,0.4,1.743,0.4c0.761,0,1.519-0.217,2.178-0.645c14.75-9.575,22.701-24.361,22.991-42.762
	c0.109-6.92-0.883-13.091-1.908-17.55c6.152,1.434,12.517,2.193,18.999,2.193c1.901,0,3.813-0.064,5.731-0.194l84.554-5.732
	c1.257-0.085,2.401-0.758,3.086-1.815c0.685-1.058,0.832-2.376,0.396-3.559c-0.601-1.628-14.588-38.803-47.227-64.783
	c10.029-10.377,13.816-25.122,9.698-39.561C413.253,198.661,443.296,171.409,460.783,125.589z M375.331,163.39
	c-0.526-1.779-1.118-3.53-1.77-5.252l18.709-6.662l32.211,21.853c-4.603,5.813-9.111,10.824-13.242,15.04L375.331,163.39z
	 M401.614,148.148l48.334-17.212c-6.112,14.009-13.357,26-20.628,36.009L401.614,148.148z M438.444,126.541l-51.012,18.166
	l2.483-30.424c12.942,1.053,24.173,4.695,34.252,7.966C429.165,123.871,433.884,125.4,438.444,126.541z M381.912,113.986
	l-2.747,33.664l-8.842,3.149c-5.889-11.618-14.704-21.517-25.51-28.701C358.579,116.248,370.845,114.072,381.912,113.986z
	 M306.415,117.62c33.946,1.615,61.032,28.23,63.778,61.573c-2.337-0.5-4.735-0.814-7.174-0.911l-35.697-1.428l-17.166-22.506
	c5.883-11.328,4.741-24.592-3.423-35.144c-0.437-0.565-0.892-1.105-1.354-1.634L306.415,117.62z M177.324,150.657
	c4.998,17.981,16.924,32.738,32.936,41.374c-12.364-2.134-27.556-7.02-41.474-17.817c-5.443-4.222-7.779-11.026-6.097-17.755
	c1.339-5.359,5.715-11.59,13.979-13.008c6.082-1.044,11.778-2.008,16.072-2.732c-2.693,5.812-3.768,12.112-4.081,17.655
	c-1.473-3.194-2.701-6.534-3.663-9.984c-0.608-2.18-2.91-3.433-5.091-2.729C177.86,146.32,176.748,148.585,177.324,150.657z
	 M169.797,184.761c22.113,14.597,45.537,16.857,57.884,16.857c3.688,0,6.382-0.201,7.763-0.333
	c26.334,9.85,45.738,32.157,51.804,59.71l-50.437,16.813c-16.252,5.419-33.471,2.673-47.234-7.533
	c-13.764-10.205-21.392-25.882-20.929-43.01L169.797,184.761z M240.132,162.57c13.213-4.542,21.028-13.575,24.919-19.437
	l11.409,14.084c-11.738,12.162-19.624,27.422-22.789,44.062c-6.458-3.923-13.47-7.09-20.939-9.359l-10.429-3.168
	c-2.666-0.81-5.215-1.826-7.649-3.017l-0.279-24.894C219.919,164.031,228.575,166.544,240.132,162.57z M223.891,156.033
	c2.316-6.467,5.55-11.825,9.213-16.232l4.712,15.098c-0.096,0.034-0.187,0.071-0.284,0.104
	C232.07,156.882,227.518,156.863,223.891,156.033z M255.532,142.468c-2.481,2.959-5.908,6.251-10.414,8.979l-5.278-16.913
	C246.855,133.01,252.786,139.022,255.532,142.468z M247.968,127.235c4.972-2.957,9.58-4.777,12.794-5.825
	c0.579,3.786,2.957,7.013,6.54,8.693l13.221,6.203c2.852,1.338,4.73,3.896,5.152,7.019c0.422,3.122-0.709,6.087-3.104,8.134
	c-0.095,0.081-0.184,0.168-0.278,0.249l-14.714-18.164c-0.879-1.085-2.264-1.627-3.648-1.44s-2.573,1.09-3.132,2.37
	c-0.011,0.024-0.199,0.443-0.573,1.142C257.116,132.2,252.885,128.838,247.968,127.235z M284.146,270.462
	c0,0,9.513-3.215,9.757-3.36l0.005,0.008c0.779-0.465,1.752-0.416,2.499,0.101c5.944,4.117,12.428,7.047,19.145,8.794l-7.35,30.013
	c-12.143-6.836-22.379-17.039-29.303-29.812L284.146,270.462z M294.613,257.375c-4.976-20.532-16.744-38.287-33.049-50.721
	c2.224-4.766,8.181-15.21,21.041-24.854c0.562-0.421,1.237-0.905,2.008-1.458c4.663-3.341,13.093-9.382,20.828-18.983l16.659,21.842
	c7.693,10.087,10.727,23.016,8.322,35.471c-2.404,12.456-10.032,23.326-20.926,29.825L294.613,257.375z M300.406,124.1
	c5.42,7.005,8.721,19.189,0.187,30.472c-7.396,9.778-15.686,15.718-20.639,19.267c-0.825,0.591-1.547,1.109-2.148,1.56
	c-4.134,3.1-7.627,6.272-10.569,9.353c4.728-10.361,11.689-19.65,20.535-27.214c4.434-3.791,6.614-9.505,5.833-15.286
	c-0.782-5.781-4.401-10.711-9.683-13.189l-13.221-6.203c-1.979-0.929-2.093-2.804-2.081-3.357c0.013-0.553,0.21-2.421,2.229-3.26
	c3.479-1.446,6.81-2.066,9.928-2.066C289.409,114.177,296.409,118.935,300.406,124.1z M227.411,118.203
	c0.275-6.959,2.684-13.533,6.96-19.008c4.295-5.483,10.094-9.4,16.774-11.328c12.328-3.572,25.698,0.416,34.067,10.163l9.472,11.022
	l-0.685-0.033c-8.033-3.646-17.333-3.857-26.222-0.163c-1.935,0.804-3.55,2.058-4.756,3.615
	c-2.776,0.635-13.092,3.378-23.717,10.865c-4.266-0.804-8.275-1.253-12.038-1.366L227.411,118.203z M231.071,130.201
	c-5.747,5.664-10.989,13.035-14.496,22.558c-1.967-1.402-3.019-2.687-3.13-2.827c-1.051-1.36-2.855-1.897-4.479-1.333
	c-1.624,0.564-2.706,2.104-2.686,3.823l0.318,28.41c-3.399-2.518-6.483-5.431-9.219-8.67c-0.412-2.33-3.858-23.916,7.502-35.161
	C210.608,131.332,219.397,129.057,231.071,130.201z M156.872,118.481c11.922-17.384,32.912-25.612,53.471-20.963l13.653,3.087
	c-2.769,5.317-4.337,11.18-4.579,17.287l-0.168,4.408c-8.22,0.981-14.927,3.987-20.021,9.042c-0.068,0.068-0.129,0.14-0.197,0.208
	c-1.111,0.185-11.663,1.947-23.715,4.015c-1.091,0.187-2.149,0.451-3.183,0.764c-6.771-4.432-14.34-7.069-22.059-7.936
	L156.872,118.481z M118.629,144.723l0.396-0.293c13.095-9.699,30.462-10.989,44.72-3.733c-4.279,3.396-7.406,8.174-8.818,13.822
	c-2.253,9.012,0.439,18.113,7.026,24.343l-0.535,19.795l-19.342,13.784c-6.35,4.525-11.719,9.994-15.984,16.152l-17.396-25.708
	C95.854,183.908,100.218,158.36,118.629,144.723z M56.615,209.596l27.355,25.201l-68.947-0.657
	C29.392,222.989,43.827,215.122,56.615,209.596z M32.13,255.146c-4.657-4.816-8.987-9.275-13.492-12.971l45.396,0.433
	l-19.419,24.844C40.068,263.352,35.995,259.144,32.13,255.146z M50.727,272.621l23.385-29.917l28.771,0.274L79.221,287.98
	C67.634,284.233,58.465,278.726,50.727,272.621z M87.112,290.162l24.764-47.098l6.69,0.064c-2.496,6.828-3.865,14.134-3.977,21.698
	c-0.146,9.873,1.852,19.376,5.744,27.998C107.51,293.388,96.572,292.341,87.112,290.162z M95.901,234.911l-31.086-28.639
	c14.934-5.659,26.712-8.002,32.022-8.858c1.349,3.431,3.08,6.771,5.233,9.953l18.799,27.782L95.901,234.911z M196.428,326.971
	c-17.754,1.615-35.366-3.426-49.577-14.201l-1.505-1.142c-14.737-11.175-23.032-28.19-22.758-46.683
	c0.274-18.493,9.069-35.255,24.131-45.989l14.429-10.283l-0.474,17.539c-0.535,19.804,8.354,38.866,24.306,50.613
	c10.501,7.733,22.73,11.716,35.223,11.716c6.376,0,12.821-1.038,19.14-3.144l29.221-9.74l-25.94,28.389
	C230.594,317.211,214.188,325.353,196.428,326.971z M252.799,332.895c-5.726-8.174-8.514-14.803-9.678-18.079
	c1.878-1.697,3.685-3.487,5.409-5.373l17.896-19.586l4.194,11.525L252.799,332.895z M258.087,339.796l16.131-28.526l21.436,58.903
	C278.1,360.354,266.144,349.451,258.087,339.796z M304.873,372.111l-12.721-34.956l26.519,13.195
	C316.508,359.113,311.898,366.396,304.873,372.111z M320.096,339.182c-0.02,0.973-0.066,1.931-0.133,2.876l-31.782-15.814
	l-15.667-43.051l0.72-0.788c10.09,17.25,25.747,29.995,43.971,36.476C318.242,322.244,320.279,330.069,320.096,339.182z
	 M334.537,314.941c-6.591-0.936-12.968-2.727-18.986-5.299l7.872-32.146c2.359,0.284,4.732,0.432,7.107,0.432
	c2.332,0,4.665-0.142,6.988-0.417l2.993,1.244L334.537,314.941z M373.903,313.935l-23.523,1.595
	c-2.635,0.178-5.255,0.21-7.852,0.119l5.57-33.739l27.863,11.583L373.903,313.935z M381.999,313.386l1.68-16.685l34.274,14.248
	L381.999,313.386z M427.485,306.247l-55.436-23.045l30.177-14.67C414.789,282.484,423.048,297.165,427.485,306.247z M396.419,262.46
	l-34.234,16.642l-11.387-4.734c4.791-1.73,9.431-4.085,13.802-7.085l20.6-14.143c0.11-0.076,0.215-0.155,0.324-0.232
	C389.421,255.932,393.048,259.147,396.419,262.46z M380.672,246.545l-20.6,14.143c-17.442,11.974-39.792,12.229-57.303,1.137
	l10.826-6.457c12.85-7.665,21.847-20.487,24.683-35.179c2.326-12.047,0.332-24.467-5.463-35.109l30.48,1.219
	c17.56,0.703,27.229,12.783,30.422,23.855C396.91,221.225,395.16,236.599,380.672,246.545z M398.319,200.286
	c-4.368-8.272-11.47-14.724-19.954-18.455c-0.091-2.363-0.293-4.698-0.597-7.001l27.639,19.227
	C402.735,196.545,400.331,198.627,398.319,200.286z" fill="#fb923c"/>
<g>
</g>
<g>
</g>
<g>
</g>
<g>
</g>
<g>
</g>
<g>
</g>
<g>
</g>
<g>
</g>
<g>
</g>
<g>
</g>
<g>
</g>
<g>
</g>
<g>
</g>
<g>
</g>
<g>
</g>
</svg>